<?xml version="1.0" encoding="UTF-8"?>
<svg width="77px" height="36px" viewBox="0 0 77 36" version="1.1" xmlns="http://www.w3.org/2000/svg" xmlns:xlink="http://www.w3.org/1999/xlink">
    <!-- Generator: Sketch 51.2 (57519) - http://www.bohemiancoding.com/sketch -->
    <title>Group 14</title>
    <desc>Created with Sketch.</desc>
    <defs></defs>
    <g id="Symbols" stroke="none" stroke-width="1" fill="none" fill-rule="evenodd">
        <g id="footer" transform="translate(-198.000000, -58.000000)" fill="#FFFFFF">
            <g id="Group-14" transform="translate(198.000000, 58.000000)">
                <path d="M34.5425172,2.29541876 C34.5091935,2.31324462 34.4672949,2.32217493 34.4116974,2.32217493 C34.3203013,2.32217493 34.2426041,2.28878184 34.1801745,2.22456703 C34.1155837,2.16024798 34.0844212,2.08053544 34.0844212,1.98487345 C34.0844212,1.88955893 34.1155837,1.80967266 34.1776996,1.74570109 C34.239955,1.68096505 34.3182098,1.64791945 34.4116974,1.64791945 C34.5181519,1.64791945 34.5737494,1.67908865 34.6872451,1.80095084 L34.8475543,1.64548707 C34.7116105,1.50159447 34.5672311,1.43039526 34.4135797,1.43039526 C34.26927,1.43039526 34.1420754,1.47713169 34.0373637,1.57258519 C33.915328,1.68322369 33.8530378,1.8208616 33.8530378,1.98487345 C33.8530378,2.12685489 33.8997119,2.25097572 33.9956743,2.35518578 C34.1042202,2.47704798 34.2446956,2.53928213 34.4135797,2.53928213 C34.5604339,2.53928213 34.6964126,2.47934136 34.8182044,2.35765291 C34.8340297,2.34434432 34.8452886,2.33315538 34.8542121,2.32425982 L34.6936938,2.16896979 C34.6251641,2.23558223 34.5758757,2.27776663 34.5425172,2.29541876" id="Fill-1"></path>
                <path d="M34.9339658,2.48178417 C34.789447,2.64371112 34.605156,2.72342365 34.3846829,2.72342365 C34.1957906,2.72342365 34.03339,2.66136324 33.8954941,2.53720766 C33.7443176,2.39731112 33.6506209,2.193443 33.6506209,2.00041635 C33.6506209,1.80756344 33.7154208,1.63903431 33.8424063,1.49701812 C33.9862976,1.33516067 34.1645584,1.2552049 34.3780251,1.2552049 C34.5758757,1.2552049 34.7428775,1.31750855 34.8787517,1.44388802 C35.0410129,1.59250638 35.1234507,1.77417035 35.1234507,1.98960963 C35.1234507,2.17808426 35.0611605,2.34206136 34.9339658,2.48178417 M35.0853515,1.36188209 C34.8987598,1.1555816 34.6651455,1.05137153 34.3846829,1.05137153 C34.1420754,1.05137153 33.9330355,1.13129256 33.759376,1.29092612 C33.5506847,1.48395277 33.4461125,1.70999029 33.4461125,1.97386867 C33.4461125,2.24222958 33.5375783,2.46851033 33.7220088,2.65222444 C33.9042782,2.83635554 34.1270518,2.92729177 34.3871578,2.92729177 C34.6293121,2.92729177 34.8386308,2.84754448 35.0164384,2.68773718 C35.2232474,2.49943629 35.327959,2.26676186 35.327959,1.98960963 C35.327959,1.74776166 35.2479613,1.53934152 35.0853515,1.36188209" id="Fill-3"></path>
                <path d="M31.8287291,33.7615431 C31.8361885,33.7506669 31.8437526,33.739895 31.8510727,33.728984 C31.8702094,33.7003514 31.8886489,33.6714409 31.9068445,33.6423218 C31.9184869,33.6236967 31.930199,33.6051412 31.9415276,33.5862729 C31.9545643,33.5643467 31.9671827,33.5421773 31.9797662,33.5199731 C31.9949989,33.493217 32.0099876,33.4663913 32.0244882,33.4391834 C32.032366,33.4243112 32.0398952,33.4092652 32.0475638,33.3942539 C32.0653411,33.3596099 32.0826652,33.3247226 32.0992225,33.2893489 C32.1030568,33.281044 32.1067168,33.2727392 32.1105163,33.2643996 C32.1295833,33.2227712 32.147988,33.1807258 32.165347,33.1381939 C32.1664276,33.1353793 32.1675081,33.1325647 32.1686236,33.1297848 C32.2268354,32.9860312 32.2753221,32.8373781 32.3128984,32.6843814 C32.3131075,32.6838255 32.3131424,32.6832347 32.3132818,32.6826788 C32.3254122,32.6333362 32.3366014,32.5836115 32.3464312,32.5334349 C32.3482438,32.5242267 32.3496381,32.5149489 32.3514158,32.5057406 C32.3590844,32.4644944 32.3665439,32.4232134 32.3727485,32.3814808 C32.3771754,32.3519447 32.3804172,32.3222349 32.3840772,32.2925599 C32.3866915,32.271016 32.3898635,32.2496458 32.3920247,32.2279281 C32.4042596,32.1083246 32.4096625,31.9878871 32.4086517,31.8670326 L32.4086517,3.33387088 C32.4086517,1.51208845 30.9270727,0.0351131293 29.0995688,0.0351131293 C27.271821,0.0351131293 25.7906254,1.51208845 25.7906254,3.33387088 L25.7906254,19.1099688 L16.1716906,1.76310997 C15.3013361,0.161075617 13.2935149,-0.434197038 11.6858916,0.433224087 C10.5780885,1.03158934 9.95037641,2.16914353 9.95246786,3.34300967 L9.95246786,12.5143645 C9.95246786,16.2722511 7.84579108,19.5489437 4.74801381,21.2325323 C4.74532979,21.233957 4.7427852,21.2355554 4.74017089,21.2370496 C4.62747691,21.2981023 4.51262177,21.3554717 4.39741806,21.4122503 C4.36834699,21.4265666 4.34021707,21.4423771 4.31100656,21.4564154 C4.04427773,21.5847755 3.77019398,21.7001745 3.49088162,21.8048016 C3.46658601,21.8139056 3.44295269,21.8243649 3.4184828,21.8332952 C3.37473676,21.8493141 3.32973585,21.8627964 3.28571096,21.8782247 C3.02309529,21.9700644 2.75650589,22.0535297 2.48437415,22.1234432 C2.45359507,22.1313658 2.42208397,22.1373425 2.39116546,22.1449524 C1.62475577,22.3341915 0.824220688,22.4363862 1.74287008e-05,22.4363862 L1.74287008e-05,29.0339017 C8.08066025,29.0339017 14.8279726,23.2376813 16.2806548,15.5970922 L26.1854552,33.4599281 C26.2197897,33.5234827 26.2566689,33.5854389 26.295012,33.6463874 C26.3054344,33.6630665 26.3161356,33.6795025 26.3268368,33.6959037 C26.3537816,33.7371151 26.3817372,33.7776316 26.4104249,33.8175226 C26.427261,33.8410124 26.444132,33.864398 26.4614561,33.8872971 C26.4916426,33.9269449 26.5225263,33.9660715 26.5544556,34.0042946 C26.5785421,34.0332746 26.6033954,34.061386 26.6283882,34.0893931 C26.644074,34.1069062 26.6598993,34.1241761 26.6759337,34.1413765 C26.7672949,34.2395751 26.8639196,34.3312758 26.965285,34.4165133 C26.9814239,34.4301346 26.9975978,34.4437212 27.0140505,34.4570646 C27.0442021,34.4814231 27.0744932,34.5054342 27.1054814,34.5286808 C27.129045,34.5464719 27.1532361,34.5635333 27.1773225,34.5806989 C27.2135045,34.6063779 27.2499305,34.6316746 27.2869491,34.6558247 C27.3264077,34.6816079 27.3662845,34.7067309 27.4068237,34.7308809 C27.4257861,34.7421046 27.4449925,34.7528766 27.4641292,34.7637181 C27.508433,34.7889106 27.5533642,34.8130259 27.5988531,34.8361682 C27.610844,34.8422144 27.6226258,34.8485386 27.6346865,34.8544458 C27.758988,34.9157418 27.887821,34.9691846 28.0203488,35.0147396 C28.0250545,35.0163728 28.0297603,35.0179364 28.034466,35.0195348 C28.1003465,35.0418432 28.1669242,35.0623447 28.2344778,35.0805181 C28.2350007,35.0806571 28.2355584,35.0808308 28.2360813,35.0810045 C28.3678771,35.116413 28.5028798,35.1437947 28.6406711,35.1628367 C28.6601913,35.1655818 28.6797114,35.1678752 28.6993013,35.1703076 C28.7432216,35.1755546 28.7873162,35.1799329 28.8317594,35.1834772 C28.8581464,35.1856316 28.8845684,35.187925 28.9110251,35.1894886 C28.9495426,35.191643 28.9884783,35.1925117 29.0273791,35.1933457 C29.0524416,35.1939364 29.0773995,35.1958128 29.1025317,35.1958128 C29.1520292,35.1958128 29.2016661,35.1935889 29.2513031,35.1913303 C29.2580654,35.1910176 29.2650369,35.1910523 29.2718689,35.1907048 C29.3120944,35.1886547 29.3522153,35.1851104 29.3924058,35.181566 C29.4141569,35.1796896 29.4359079,35.1779522 29.4574846,35.1756588 C29.4924117,35.1718713 29.527304,35.1673192 29.5621962,35.1623502 C29.5908142,35.1584237 29.6192927,35.1540107 29.6477014,35.1492849 C29.6773302,35.1443159 29.706959,35.1392774 29.7365878,35.1334744 C29.7758373,35.1258298 29.814773,35.117108 29.8534647,35.1081082 C29.8732288,35.1034867 29.8929581,35.0994906 29.9126177,35.0944869 C29.9742107,35.0789891 30.0351763,35.061754 30.0953751,35.0428857 C30.0996277,35.0415305 30.1038454,35.0399321 30.108098,35.0385769 C30.166275,35.0200213 30.2236503,34.9996936 30.280433,34.9780454 C30.2905765,34.9741536 30.3007549,34.9700881 30.3109332,34.966092 C30.3655896,34.9446176 30.4195489,34.921788 30.4727413,34.8975337 C30.4796082,34.8944758 30.4864751,34.8914527 30.4932723,34.8882906 C30.6549409,34.8133386 30.8097775,34.7262942 30.9559346,34.6273658 C30.9874108,34.6061694 31.017911,34.5839305 31.0484113,34.5617959 C31.0597748,34.5535258 31.0714172,34.5456727 31.0826761,34.5372288 C31.3383551,34.3469473 31.5596299,34.1242456 31.7446879,33.8783668 C31.7479296,33.8741623 31.7512062,33.8699577 31.7543782,33.8657532 C31.7798938,33.8314567 31.804538,33.7967084 31.8287291,33.7615431" id="Fill-5"></path>
                <path d="M40.5217885,22.8376036 L42.6527958,22.8376036 C43.9212218,22.8376036 44.9021788,22.6521521 45.5786912,22.2643614 C46.7287415,21.6068546 47.4052888,20.3086244 47.4052888,18.7069375 C47.4052888,17.0041331 46.8133404,15.8239428 45.6125029,15.1495484 C44.9190846,14.7617576 43.9381625,14.5763061 42.6527958,14.5763061 L40.5217885,14.5763061 L40.5217885,22.8376036 Z M37.4267301,11.7438702 L42.3483512,11.7438702 C44.4624526,11.7438702 46.0691697,12.0641797 47.2023141,12.7048684 C48.1663653,13.2612577 48.9274069,14.0199168 49.4855436,14.9978026 C50.1282096,16.1273995 50.4495599,17.3412956 50.4495599,18.6732317 C50.4495599,20.5446694 49.8745174,22.1463562 48.7075613,23.4445517 C48.014143,24.2369513 47.1685024,24.7933407 46.1875455,25.1305379 C45.2066233,25.4677351 43.9212218,25.6363337 42.3483512,25.6363337 L40.5217885,25.6363337 L40.5217885,34.7574773 L37.4267301,34.7574773 L37.4267301,11.7438702 Z" id="Fill-7"></path>
                <path d="M54.7312166,22.3992472 C53.1244995,23.3602454 52.3296113,24.9113388 52.3296113,27.086268 C52.3296113,28.8902593 52.8877132,30.2896417 54.0208924,31.2843457 C54.9510971,32.1104859 56.0503949,32.5151296 57.3357616,32.5151296 C58.8071971,32.5151296 60.0249056,31.9924808 60.9889219,30.9471833 C61.8853148,29.9861503 62.3250409,28.6879548 62.3250409,27.0525621 C62.3250409,25.2822766 61.7669042,23.9166348 60.6506656,22.921896 C59.720461,22.0957906 58.6042225,21.6911469 57.2850441,21.6911469 C56.3548395,21.6911469 55.5091989,21.9271919 54.7312166,22.3992472 M63.2383397,21.6068476 C64.6251763,23.1410881 65.3185946,24.9619323 65.3185946,27.086268 C65.3185946,29.5646537 64.4222016,31.5878372 62.6463913,33.189524 C61.1749558,34.5214253 59.3991455,35.1958198 57.3357616,35.1958198 C54.9510971,35.1958198 52.9722772,34.3359738 51.4163125,32.6162818 C50.029476,31.0820413 49.3360577,29.2106036 49.3360577,27.0356745 C49.3360577,24.6247351 50.2324158,22.6015517 52.0082609,20.9998995 C53.4796616,19.6679635 55.3062591,19.010422 57.4541722,19.010422 C59.7374017,19.010422 61.6654343,19.870268 63.2383397,21.6068476" id="Fill-9"></path>
                <path d="M68.4318102,29.9861468 C69.3789206,31.8913251 70.1907147,32.5488319 71.5606803,32.5488319 C72.3893801,32.5488319 73.0151751,32.295934 73.4379953,31.7901381 C73.8100632,31.3517887 73.9960972,30.8628457 73.9960972,30.323344 C73.9960972,29.8344011 73.8438749,29.4466451 73.5394652,29.1768943 C73.2181148,28.9071435 72.5585082,28.5699462 71.5437396,28.1821555 L69.9370574,27.5583545 C67.7722036,26.7322143 66.6897767,25.4002783 66.6897767,23.5625812 C66.6897767,22.2306451 67.1802552,21.151607 68.1612122,20.3086487 C69.1590402,19.4487679 70.3598776,19.0104185 71.7636201,19.0104185 C73.8776866,19.0104185 75.4844385,20.0220102 76.6006771,22.0620465 L74.2666952,23.2590898 C73.5394652,22.1631987 72.6769188,21.6236971 71.6959618,21.6236971 C70.3936893,21.6236971 69.4803905,22.3823908 69.4803905,23.4782819 C69.4803905,23.9672248 69.615707,24.3381279 69.9032108,24.5741381 C70.1907147,24.8270708 70.8503213,25.1474151 71.9158423,25.552024 L73.387243,26.1252663 C75.8903181,27.0862645 76.9558392,28.3170483 76.9558392,30.2053389 C76.9558392,31.6384272 76.4146083,32.8523233 75.3153104,33.8133215 C74.283601,34.7406139 72.9982344,35.1958163 71.493022,35.1958163 C68.8715363,35.1958163 67.0111271,33.7964686 65.9456409,30.9977385 L68.4318102,29.9861468 Z" id="Fill-11"></path>
            </g>
        </g>
    </g>
</svg>